<svg width="40" height="40" viewBox="0 0 40 40" fill="none" xmlns="http://www.w3.org/2000/svg">
<path d="M39.9819 4.21918C40.0595 3.75291 39.8845 3.28038 39.5221 2.97715C39.1595 2.67393 38.6635 2.58534 38.2181 2.74433L0.884896 16.0777C0.381891 16.2573 0.0346312 16.7198 0.00243654 17.2529C-0.0297579 17.7861 0.259325 18.287 0.737061 18.5259L11.4037 23.8592C11.8317 24.0732 12.3415 24.0414 12.7396 23.776L21.594 17.8731L16.2922 24.5004C16.0587 24.7922 15.9585 25.1686 16.0158 25.5379C16.0731 25.9072 16.2828 26.2354 16.5937 26.4427L32.5939 37.1093C32.9701 37.3602 33.4483 37.4032 33.8635 37.2234C34.2787 37.0437 34.5741 36.6656 34.6485 36.2192L39.9819 4.21918Z" fill="#424242"/>
</svg>
